<svg width="297" height="308" viewBox="0 0 297 308" fill="none" xmlns="http://www.w3.org/2000/svg">
<g clip-path="url(#clip0_102_2)">
<path d="M218.96 176.19C228.32 172.53 238.75 171.23 248.67 172.98C258.59 174.73 267.23 179.18 274.67 186C292.22 202.12 299.35 230.73 289.29 252.69C284.43 263.3 276.01 271.72 265.64 276.98C261.69 278.99 257.51 280.52 253.22 281.65C250.24 282.43 246.94 283.07 244.15 283.39C229.93 285.03 214.62 282.23 203.04 273.5C193.12 266.02 186.81 254.59 185.12 242.35C184.01 234.32 184.68 225.9 186.95 218.11C187.13 217.51 187.31 216.9 187.52 216.31C188.2 214.41 185.18 213.59 184.51 215.48C182.31 221.67 181.47 228.57 181.51 235.1C181.58 247.83 185.86 260.22 194.41 269.76C201.92 278.14 212.25 283.45 223.22 285.63C229.23 286.82 235.4 287.17 241.52 286.76C248.26 286.3 254.98 284.77 261.26 282.33C271.76 278.25 281.01 271.48 287.47 262.18C295.11 251.19 298.05 237.57 296.6 224.34C295.29 212.44 290.86 200.67 283.56 191.14C277.34 183.02 268.88 176.43 259.31 172.71C247.59 168.15 234.39 168.09 222.41 171.71C220.96 172.15 219.54 172.64 218.13 173.19C216.28 173.91 217.08 176.94 218.96 176.2V176.19Z" fill="black"/>
<path d="M104.92 136.25C106.11 139.09 107.43 141.81 109.51 144.12C111.79 146.64 114.85 148.04 118.22 148.3C121.59 148.56 125 147.52 128.2 146.57C131.76 145.52 135.29 144.38 138.79 143.16C140.38 142.61 141.44 141.02 140.97 139.32C140.54 137.77 138.73 136.58 137.13 137.14C134.16 138.17 131.17 139.15 128.16 140.06C125.51 140.86 122.73 141.9 119.94 142.06C117.64 142.19 115.75 141.57 114.3 140.09C112.93 138.7 111.68 136.33 110.95 134.59C110.3 133.04 108.88 131.92 107.11 132.41C105.64 132.81 104.27 134.69 104.93 136.25H104.92Z" fill="black"/>
<path d="M189.22 35.98C194.57 40.43 199.16 44.45 202.91 47.84C206.48 51.05 208.72 53.14 210.52 56.6C212.05 59.54 212.67 62.85 213.26 66.1C216.86 85.81 220.17 105.58 223.2 125.39C207.57 132.38 198.4 151.68 181.45 154.14C178.34 148.58 174 140.29 169.67 129.86C156.34 97.72 145.05 49.88 157.79 42.85C160.02 41.62 163.94 41.1 171.3 45.17" fill="black"/>
<path d="M149.5 24.29C150.28 27.25 150.32 30.11 150.09 33.14C149.98 34.6 150.39 35.71 151.52 36.65C152.46 37.44 152.84 38.39 153.43 39.43C154.68 41.64 157.02 42.52 159.47 42.05C162.06 41.55 163.97 39.53 165.66 37.65C166.66 36.54 165.02 34.89 164.02 36.01C162.62 37.57 161.05 39.44 158.86 39.82C158.02 39.96 157.06 39.87 156.35 39.37C155.54 38.8 155.21 37.77 154.75 36.93C154.24 36 153.55 35.44 152.81 34.71C152.01 33.93 152.53 32.36 152.58 31.36C152.72 28.78 152.42 26.18 151.76 23.68C151.38 22.23 149.13 22.85 149.52 24.3L149.5 24.29Z" fill="black"/>
<path d="M150.32 22.56C147.82 24.03 144.49 21.46 144.18 18.58C143.87 15.7 145.58 13 147.43 10.77C152.16 5.07001 158.77 0.430006 166.17 0.0200063C173.57 -0.389994 181.47 4.51001 182.67 11.82C182.79 12.55 182.84 13.33 182.53 14C182.06 15.01 180.91 15.5 179.84 15.79C174.81 17.12 169.51 15.82 164.32 15.48C159.13 15.14 153.16 16.19 150.36 20.57" fill="black"/>
<path d="M176.57 20.01C176.57 19.94 176.57 19.86 176.58 19.79C176.55 20.02 176.55 20.06 176.58 19.89C176.6 19.82 176.62 19.75 176.64 19.69C176.55 19.9 176.54 19.92 176.61 19.77C176.65 19.71 176.71 19.51 176.78 19.5C176.64 19.67 176.63 19.69 176.74 19.56C176.79 19.51 176.84 19.45 176.89 19.4C177.03 19.27 177.11 19.24 176.91 19.36C177.04 19.28 177.16 19.2 177.29 19.13C177.36 19.1 177.42 19.06 177.49 19.03C177.29 19.11 177.27 19.13 177.43 19.07C177.54 19.04 177.65 19.01 177.76 18.98C177.93 18.95 177.91 18.95 177.68 18.98C177.75 18.98 177.83 18.97 177.9 18.96C178.01 18.96 178.12 18.96 178.23 18.96C178.41 18.98 178.38 18.97 178.15 18.95C178.22 18.96 178.3 18.98 178.37 19C178.44 19.02 178.51 19.04 178.58 19.07C178.4 18.99 178.39 18.99 178.55 19.07C178.65 19.13 178.76 19.2 178.87 19.26C179.01 19.36 179 19.35 178.85 19.23C178.91 19.28 178.97 19.34 179.03 19.39C179.12 19.47 179.2 19.57 179.28 19.66C179.39 19.79 179.39 19.79 179.26 19.63C179.31 19.7 179.35 19.77 179.4 19.84C179.48 19.96 179.55 20.09 179.61 20.22C179.79 20.58 179.59 20.07 179.67 20.37C179.75 20.67 179.83 20.93 179.88 21.23C179.81 20.82 179.88 21.36 179.88 21.44C179.88 21.59 179.86 21.73 179.87 21.88C179.86 21.99 179.87 21.96 179.89 21.79C179.88 21.88 179.86 21.98 179.84 22.07C179.8 22.26 179.75 22.44 179.7 22.62C179.66 22.76 179.61 22.89 179.56 23.02C179.68 22.72 179.45 23.25 179.42 23.3C179.26 23.6 179.08 23.88 178.89 24.16C178.78 24.31 178.78 24.32 178.87 24.19C178.81 24.27 178.75 24.34 178.69 24.42C178.6 24.53 178.5 24.64 178.4 24.75C178.14 25.04 177.85 25.3 177.56 25.56C176.94 26.1 176.97 27.23 177.56 27.77C178.22 28.37 179.11 28.35 179.77 27.77C182.01 25.82 183.66 22.8 182.78 19.77C182.38 18.41 181.51 17.13 180.25 16.42C178.9 15.66 177.37 15.69 175.99 16.3C174.52 16.95 173.51 18.39 173.46 20C173.43 20.82 174.2 21.6 175.02 21.56C175.89 21.52 176.56 20.87 176.58 20L176.57 20.01Z" fill="black"/>
<path d="M166.08 44.84C166.66 46.85 169.03 47.92 171.1 47.66C173.17 47.4 174.97 46.11 176.52 44.71C179.08 42.4 181.25 39.67 182.9 36.65C183.37 35.79 183.91 34.82 184.87 34.58C185.91 34.32 186.98 35.15 187.33 36.16C187.68 37.17 187.45 38.29 187.12 39.31C184.18 48.1 173.09 52.75 171.58 61.89C171.05 65.08 171.83 68.33 172.6 71.48L175.22 82.15C175.41 82.93 175.59 83.78 175.24 84.5C174.77 85.46 173.48 85.78 172.46 85.44C171.44 85.1 170.67 84.29 170.02 83.44C165.98 78.2 165.13 71.2 165.18 64.59C165.23 57.98 166.01 51.28 164.67 44.81" fill="white"/>
<path d="M163.71 108.14C163.4 102.24 163.08 96.35 162.77 90.45C159.08 93.08 153.96 92.91 149.77 91.17C145.58 89.43 142.12 86.36 138.74 83.33C144.44 76.57 148.75 68.64 151.32 60.17C153.16 54.12 154.21 47.61 157.97 42.53" fill="black"/>
<path d="M222.25 129.37C227.13 137.78 227.55 148.62 223.33 157.37C221.64 160.87 219.29 164.01 217.4 167.4C211.81 177.4 210.39 189.27 211.11 200.7C211.83 212.13 214.57 223.32 216.85 234.55C220.09 250.53 222.4 266.69 223.77 282.94L213.84 278.83C212.42 278.24 210.94 277.61 209.97 276.43C209 275.25 208.66 273.68 208.34 272.18C204.05 251.88 197.99 231.95 190.26 212.69C187.11 204.84 183.64 196.94 182.88 188.52C181.84 176.94 186.02 165.23 184.11 153.76" fill="white"/>
<path d="M220.9 130.16C225.41 138.05 225.97 148.14 222.07 156.4C219.91 160.96 216.7 164.93 214.57 169.51C212.44 174.09 211.14 178.55 210.35 183.31C206.83 204.39 213.83 225.43 217.43 246.01C219.57 258.24 221.16 270.56 222.21 282.93L224.19 281.42L217.42 278.61C215.57 277.84 213.33 277.24 211.74 275.96C210.15 274.68 209.99 272.41 209.6 270.58C209.12 268.33 208.61 266.09 208.09 263.86C205.95 254.76 203.46 245.75 200.62 236.84C197.78 227.95 194.58 219.19 191.08 210.54C187.58 201.89 184.2 193.43 184.28 184.09C184.37 173.78 187.26 163.64 185.62 153.32C185.3 151.34 182.29 152.18 182.61 154.15C184.11 163.58 181.54 173.04 181.19 182.46C180.84 191.98 183.77 200.72 187.29 209.43C194.46 227.2 200.5 245.33 204.92 263.98C205.54 266.6 206.13 269.23 206.7 271.86C207.16 274.03 207.61 276.3 209.27 277.91C210.93 279.52 213.36 280.26 215.47 281.14L223.37 284.41C224.27 284.78 225.43 283.83 225.35 282.9C224.41 271.8 223.04 260.73 221.23 249.73C219.45 238.84 216.96 228.09 214.92 217.25C212.88 206.41 211.69 196.31 213.11 185.83C213.77 180.97 215 176.12 217.01 171.64C219.02 167.16 222.25 163.04 224.5 158.52C229.19 149.12 228.82 137.65 223.62 128.54C222.62 126.79 219.92 128.37 220.92 130.12L220.9 130.16Z" fill="black"/>
<path d="M182.67 154.89C173.89 154.66 165.11 154.45 156.33 154.21C147.95 153.98 139.54 153.6 131.4 151.43C129.99 151.05 129.08 152.53 129.64 153.73C137.56 170.74 142.36 189.17 143.76 207.88C143.91 209.87 147.04 209.89 146.89 207.88C145.44 188.58 140.51 169.69 132.34 152.15L130.58 154.45C138.82 156.65 147.37 157.09 155.86 157.32C164.8 157.57 173.73 157.78 182.67 158.02C184.68 158.07 184.68 154.95 182.67 154.89V154.89Z" fill="black"/>
<path d="M159.52 118.44C149.73 120.43 140 122.76 130.37 125.43C125.74 126.71 121.05 127.97 116.51 129.54C112.57 130.9 109.71 133.42 109.24 137.73C108.8 141.77 110.39 145.78 111.63 149.54L116.45 164.14L126.01 193.1C127.52 197.68 128.78 202.79 132.32 206.29C135.48 209.41 139.99 211.06 144.42 210.69C146.41 210.52 146.43 207.39 144.42 207.56C140.78 207.87 137.15 206.67 134.54 204.08C131.63 201.2 130.59 196.98 129.35 193.21L120.49 166.36L115.98 152.7C114.7 148.82 112.98 144.84 112.43 140.76C112.21 139.14 112.2 137.36 112.92 135.86C113.71 134.2 115.31 133.29 116.97 132.68C121.23 131.13 125.69 129.98 130.05 128.76C140.06 125.95 150.18 123.52 160.37 121.44C162.34 121.04 161.51 118.03 159.54 118.43L159.52 118.44Z" fill="black"/>
<path d="M210.56 277.87C203.92 286.31 196.35 294.02 188.01 300.79C186.62 301.92 185.08 303.78 186.11 305.24C186.51 305.8 187.19 306.08 187.85 306.28C193.48 308.02 199.61 306.28 204.93 303.75C210.25 301.21 215.21 297.86 220.83 296.08C222.19 295.65 223.63 295.29 224.69 294.33C227.15 292.12 226.32 288.15 225.3 285" fill="black"/>
<path d="M132.23 204.96C132.02 210.33 127.81 214.73 123.23 217.53C118.65 220.34 113.45 222.12 109.16 225.35C108.45 225.88 107.72 226.54 107.61 227.42C107.44 228.84 108.92 229.86 110.26 230.36C115.27 232.21 120.85 231.55 126.06 230.34C131.27 229.13 136.4 227.39 141.74 227.14C145.04 226.98 149.02 227.07 150.78 224.28C151.47 223.19 151.64 221.85 151.67 220.56C151.8 214.69 149.16 208.82 144.68 205.03" fill="black"/>
<path d="M202.25 93.13C204.84 92.77 206.91 97.28 211.46 102.67C216.8 109 222.54 112.97 226.64 115.36L225.62 126.88C216.02 119.77 206.42 112.65 196.82 105.54C198.43 95.67 200.57 93.36 202.25 93.13V93.13Z" fill="white"/>
<path d="M202.25 94.69C203.62 94.56 205.05 96.87 205.91 98.01C207.97 100.77 210.01 103.52 212.37 106.03C216.31 110.22 220.9 113.79 225.85 116.7L225.08 115.35L224.06 126.87L226.41 125.52C216.81 118.41 207.21 111.29 197.61 104.18L198.33 105.94C198.84 102.86 199.37 99.51 200.77 96.68C200.96 96.29 201.17 95.9 201.42 95.54C201.55 95.34 201.62 95.26 201.91 94.97C201.97 94.91 202.32 94.6 202 94.88C202.08 94.81 202.21 94.73 202.31 94.69C201.99 94.81 202.42 94.65 202.66 94.61C204.64 94.3 203.8 91.28 201.83 91.6C200.18 91.86 198.99 93.36 198.25 94.73C196.55 97.88 195.89 101.61 195.31 105.1C195.18 105.86 195.42 106.41 196.03 106.86C205.63 113.97 215.23 121.09 224.83 128.2C225.87 128.97 227.09 127.9 227.18 126.85L228.2 115.33C228.25 114.79 227.87 114.24 227.43 113.98C222.15 110.88 217.38 107.02 213.33 102.43C211.14 99.94 209.3 97.19 207.22 94.61C206.01 93.11 204.37 91.33 202.24 91.54C200.26 91.73 200.24 94.86 202.24 94.67L202.25 94.69Z" fill="black"/>
<path d="M217.01 85.62C221.45 91.05 226 96.58 231.95 100.28C233.54 101.27 235.23 102.12 236.7 103.28C239.32 105.33 241.13 108.2 242.9 111.02L251.26 124.36C251.59 124.89 251.93 125.49 251.8 126.1C251.7 126.55 251.36 126.9 251.04 127.22C246.32 131.93 241.6 136.63 236.89 141.34C236.38 141.85 235.8 142.39 235.09 142.42C234.42 142.46 233.81 142.04 233.28 141.62C229.06 138.34 225.57 134.11 223.15 129.34" fill="black"/>
<path d="M230.1 115.03C232.77 111.69 235.81 108.66 239.15 106C239.79 105.49 239.72 104.32 239.15 103.79C238.47 103.16 237.62 103.24 236.94 103.79C233.6 106.46 230.56 109.49 227.89 112.82C227.38 113.46 227.22 114.42 227.89 115.03C228.46 115.55 229.55 115.71 230.1 115.03Z" fill="white"/>
<path d="M176.26 98.13L154.87 125.23C152.99 127.62 150.92 130.13 148 131.01C145.99 131.61 143.83 131.34 141.75 131.6C139.67 131.86 137.41 132.93 136.87 134.95C136.6 135.96 136.81 137.02 137.06 138.03C137.62 140.35 138.37 142.63 139.29 144.83C139.66 145.72 140.08 146.63 140.8 147.29C142.69 149 145.66 148.27 148.07 147.43C150.77 146.49 153.51 145.54 155.86 143.91C160.38 140.79 162.93 135.62 166.16 131.19C173.57 121.03 185.22 113.98 190.44 102.54" fill="white"/>
<path d="M175.15 97.03L154.22 123.55C152.87 125.27 151.51 127.13 149.71 128.42C147.62 129.91 145.32 129.81 142.87 129.95C140.8 130.07 138.71 130.52 137.09 131.9C135.29 133.43 134.96 135.58 135.4 137.8C135.93 140.48 136.86 143.13 137.93 145.63C138.83 147.72 140.21 149.39 142.56 149.79C144.71 150.15 146.86 149.51 148.88 148.81C151.16 148.02 153.46 147.19 155.55 145.96C159.48 143.66 162.14 139.95 164.61 136.24C167.08 132.53 169.67 129.07 172.76 125.85C179.55 118.77 187.56 112.43 191.78 103.34C192.62 101.53 189.93 99.94 189.08 101.76C185.64 109.17 179.57 114.7 173.84 120.33C170.89 123.23 168.01 126.2 165.49 129.49C162.97 132.78 161.04 136.46 158.32 139.56C155.34 142.96 151.52 144.65 147.29 146.05C145.74 146.56 143.33 147.41 141.89 146.19C141.08 145.51 140.7 144.27 140.34 143.32C139.88 142.13 139.47 140.93 139.11 139.7C138.56 137.82 137.48 135.28 139.51 133.97C141.23 132.86 143.4 133.09 145.34 132.98C147.56 132.85 149.61 132.32 151.43 131.01C153.11 129.8 154.44 128.25 155.72 126.64C162.96 117.53 170.14 108.37 177.35 99.24C178.58 97.68 176.39 95.45 175.14 97.03H175.15Z" fill="black"/>
<path d="M146.24 91.66L131.2 110.17C128.88 113.02 126.44 115.81 124.31 118.81C122.44 121.45 121.03 124.41 121 127.7C120.98 129.71 124.11 129.71 124.13 127.7C124.16 124.61 125.81 121.95 127.62 119.55C129.76 116.7 132.1 113.99 134.35 111.22L148.45 93.86C149.71 92.31 147.51 90.09 146.24 91.65V91.66Z" fill="black"/>
<path d="M137.21 84.51L120.06 110.09C118.88 111.85 117.77 114 115.84 115.06C114.07 116.02 111.93 116.08 109.97 116.31C106.14 116.78 102.75 118.1 100.22 121.13C97.54 124.33 96.34 128.43 97.06 132.56C97.14 133.05 97.67 133.56 98.15 133.65L111.35 136.19C113.32 136.57 114.16 133.56 112.18 133.18L98.98 130.64L100.07 131.73C99.5 128.42 100.8 124.95 103.12 122.58C105.87 119.76 109.29 119.6 112.97 119.08C114.9 118.81 116.81 118.31 118.39 117.12C120.08 115.85 121.18 114.02 122.34 112.29L130.5 100.12L139.91 86.09C141.03 84.41 138.33 82.85 137.21 84.51V84.51Z" fill="black"/>
<path d="M110.45 144.52L104.03 156.46C103.26 157.9 103.62 159.93 105.15 160.74C106.68 161.55 108.6 161.16 109.43 159.62L115.85 147.68C116.62 146.24 116.26 144.21 114.73 143.4C113.2 142.59 111.28 142.98 110.45 144.52Z" fill="black"/>
<path d="M107.7 158.13L104.16 155.54L97.72 175.04C97.38 176.08 97.02 177.14 96.31 177.97C95.47 178.94 94.25 179.46 93.18 180.16C89.82 182.34 87.97 186.15 86.28 189.78L76.52 210.68C70.31 223.99 63.67 237.85 51.95 246.71" fill="black"/>
<path d="M105.55 158.12L107.85 159.91C106.6 168.01 101.7 175.41 101.7 183.6C101.7 185.55 101.98 187.51 101.67 189.43C101.41 191.06 100.75 192.59 100.07 194.1C91.02 214.27 79.02 233.12 64.56 249.85" fill="black"/>
<path d="M52.21 248.11L53.22 245.63C53.29 245.42 53.29 245.21 53.25 245.01C53.25 244.8 53.18 244.61 53.06 244.43C52.87 244.11 52.5 243.8 52.13 243.71C51.73 243.62 51.28 243.64 50.93 243.87L50.61 244.11C50.42 244.3 50.28 244.53 50.21 244.8L49.2 247.28C49.13 247.49 49.13 247.7 49.17 247.9C49.17 248.11 49.24 248.3 49.36 248.48C49.55 248.8 49.92 249.11 50.29 249.2C50.69 249.29 51.14 249.27 51.49 249.04L51.81 248.8C52 248.61 52.14 248.38 52.21 248.11Z" fill="black"/>
<path d="M102.12 171.92C122.85 192.92 142.17 215.31 159.92 238.88Z" fill="black"/>
<path d="M163.17 241.05L179.95 187.19L184.76 171.77C185.36 169.85 182.34 169.02 181.75 170.94L164.97 224.8L160.16 240.22C159.56 242.14 162.58 242.97 163.17 241.05Z" fill="black"/>
<path d="M139.55 240.51C140.08 246.22 141.8 251.71 146.92 254.91C151.66 257.88 157.81 258.29 163.14 256.9C171.38 254.76 178.01 247.59 178.63 238.95C179.03 233.46 177.31 227.77 173.07 224.09C171.77 222.96 169.86 224.85 171.17 225.99C174.63 228.99 176.07 233.35 175.99 237.84C175.98 238.4 175.94 238.96 175.89 239.53C175.88 239.68 175.81 240.18 175.87 239.76C175.77 240.46 175.63 241.16 175.44 241.84C174.84 244.07 173.74 246.17 172.28 247.96C167.13 254.25 157.89 256.84 150.29 253.63C147.72 252.55 145.58 250.73 144.23 248.28C142.88 245.83 142.49 243.18 142.24 240.5C142.08 238.79 139.39 238.77 139.55 240.5V240.51Z" fill="black"/>
<path d="M86.82 187.5C84.1 186.16 81.16 185.17 78.25 184.33C72.05 182.55 65.55 181.6 59.09 181.64C42.66 181.75 26.79 188.8 15.92 201.17C9.53998 208.43 4.97998 217.15 2.32998 226.43C-1.78002 240.87 -0.310023 256.31 5.47998 270.06C9.28998 279.1 14.91 287.69 22.35 294.15C34.01 304.29 49.6 308.76 64.89 307.17C77.16 305.89 88.93 301.05 98.33 293.01C109.85 283.16 117.35 268.82 119.6 253.89C121.24 243.01 120.15 231.9 116.35 221.58C112.26 210.46 105.42 200.43 95.97 193.19C93.1 191 90.03 189.1 86.8 187.49C85.01 186.59 83.42 189.29 85.22 190.19C96.49 195.82 105.23 205.09 110.75 216.36C114.66 224.35 116.95 233.14 117.21 242.04C117.65 256.64 112.89 271.47 103.73 282.9C95.14 293.63 82.86 300.9 69.36 303.39C57.57 305.57 44.66 304.1 33.84 298.31C23.87 292.98 16.37 284.45 11.08 274.59C5.33998 263.88 2.39998 251.59 3.19998 239.44C3.87998 229.26 7.30998 219.19 12.76 210.58C20.74 197.97 33.5 188.88 48.17 185.88C59.78 183.51 72.23 184.95 83.21 189.32C83.96 189.62 84.32 189.75 85.23 190.2C87.03 191.09 88.61 188.39 86.81 187.5H86.82Z" fill="black"/>
<path d="M212.27 179.52L226.1 204.61C230.4 212.41 235.5 220.24 237.56 229L239.07 227.02C235.99 226.81 233.54 224.71 231.56 222.53C229.17 219.9 227.12 216.94 225.06 214.05C220.65 207.84 216.58 201.39 212.87 194.74C211.89 192.98 209.19 194.56 210.17 196.32C214.18 203.51 218.61 210.47 223.45 217.14C227.33 222.49 231.77 229.65 239.07 230.15C240.12 230.22 240.79 229.1 240.58 228.17C238.49 219.3 233.39 211.37 229.04 203.47L214.97 177.94C214 176.18 211.3 177.75 212.27 179.52V179.52Z" fill="black"/>
<path d="M236.81 227.66C236.13 229.82 237.92 232.05 240.03 232.44C241.14 232.64 242.26 232.47 243.18 231.79C244.1 231.11 244.73 230.19 245.07 229.1C245.41 228.01 245.41 226.82 245.12 225.73C244.98 225.22 244.55 224.76 244.03 224.64C242.8 224.34 241.46 224.56 240.4 225.26C239.34 225.96 238.51 226.99 238.29 228.23C238.22 228.65 238.22 229.05 238.45 229.43C238.64 229.75 239.01 230.06 239.38 230.15C240.14 230.32 241.15 229.92 241.3 229.06C241.33 228.9 241.38 228.74 241.42 228.58C241.5 228.32 241.24 228.94 241.37 228.69C241.4 228.63 241.43 228.56 241.47 228.5C241.52 228.42 241.57 228.34 241.62 228.26C241.76 228.04 241.36 228.56 241.55 228.35C241.65 228.24 241.75 228.12 241.87 228.02C241.98 227.92 242.21 227.81 241.8 228.06C241.86 228.02 241.92 227.98 241.97 227.94C242.1 227.86 242.23 227.78 242.37 227.71C242.68 227.56 242.03 227.83 242.29 227.74C242.36 227.72 242.42 227.69 242.49 227.67C242.65 227.62 242.81 227.59 242.97 227.57L242.55 227.63C242.81 227.6 243.06 227.6 243.32 227.63L242.9 227.57C242.99 227.58 243.09 227.6 243.18 227.63L242.09 226.54C242.14 226.72 242.18 226.9 242.2 227.09L242.14 226.67C242.2 227.09 242.2 227.52 242.14 227.94L242.2 227.52C242.15 227.85 242.07 228.16 241.96 228.47C241.88 228.72 242.15 228.07 241.98 228.41C241.95 228.47 241.92 228.53 241.89 228.59C241.85 228.67 241.8 228.75 241.75 228.82C241.72 228.87 241.53 229.13 241.71 228.88C241.89 228.63 241.71 228.88 241.66 228.93C241.61 228.99 241.55 229.04 241.49 229.1C241.43 229.16 241.37 229.2 241.31 229.26C241.66 228.93 241.5 229.11 241.38 229.19C241.31 229.23 241.24 229.27 241.17 229.31C241.11 229.34 240.82 229.47 241.11 229.35C241.4 229.23 241.11 229.35 241.04 229.35C240.95 229.37 240.87 229.39 240.78 229.4L241.2 229.34C240.98 229.37 240.76 229.37 240.54 229.34L240.96 229.4C240.83 229.38 240.7 229.36 240.57 229.32C240.51 229.3 240.44 229.28 240.38 229.26C240.14 229.18 240.75 229.44 240.51 229.32C240.4 229.26 240.29 229.21 240.19 229.14C240.13 229.1 240.08 229.06 240.02 229.03C239.88 228.95 240.35 229.32 240.13 229.11C240.04 229.03 239.95 228.95 239.87 228.86C239.77 228.74 239.74 228.61 239.95 228.98C239.92 228.93 239.88 228.88 239.84 228.82C239.8 228.76 239.78 228.71 239.75 228.65C239.63 228.44 239.88 229.04 239.81 228.79C239.77 228.67 239.74 228.56 239.72 228.43L239.78 228.85C239.76 228.68 239.76 228.52 239.78 228.35L239.72 228.77C239.74 228.66 239.76 228.56 239.79 228.45C240.03 227.67 239.5 226.71 238.7 226.53C237.85 226.34 237.04 226.79 236.78 227.62L236.81 227.66Z" fill="black"/>
<path d="M206.02 73.68C201.9 84.98 197.78 96.27 193.67 107.57C181.98 103.73 173.49 100.87 171.74 100.28C171.28 100.12 170.1 99.74 169.9 98.85C169.81 98.43 169.95 97.99 170.09 97.58" fill="white"/>
<path d="M55.6 233.93L40.29 199.85" stroke="black" stroke-width="1.04" stroke-miterlimit="10"/>
<path d="M85.9 288.64L70.6 254.56" stroke="black" stroke-width="1.04" stroke-miterlimit="10"/>
<path d="M243.84 218.12L246.52 180.85" stroke="black" stroke-width="1.04" stroke-miterlimit="10"/>
<path d="M250.59 221.26L274.94 192.92" stroke="black" stroke-width="1.04" stroke-miterlimit="10"/>
<path d="M254.89 274.72L243.9 239.01" stroke="black" stroke-width="1.04" stroke-miterlimit="10"/>
<path d="M42.94 290.83L55.16 255.52" stroke="black" stroke-width="1.04" stroke-miterlimit="10"/>
<path d="M61.56 294.15L63.55 256.84" stroke="black" stroke-width="1.04" stroke-miterlimit="10"/>
</g>
<defs>
<clipPath id="clip0_102_2">
<rect width="296.96" height="307.49" fill="white"/>
</clipPath>
</defs>
</svg>
