<svg width="78" height="169" viewBox="0 0 78 169" fill="none" xmlns="http://www.w3.org/2000/svg">
<g clip-path="url(#clip0_1_3)">
<path d="M52.385 5.69266C52.2 7.21407 51.9533 11.0541 54.1514 14.9671C55.2673 16.9545 56.6467 18.3074 57.6729 19.1496C56.9944 19.8906 56.6355 20.8225 56.3551 21.7938C55.8953 23.405 55.7551 24.1573 55.5084 24.7355C55.0093 25.9089 53.1308 27.0822 46.9626 26.9363" fill="black"/>
<path d="M52.5196 4.21054C51.6224 1.01614 45.3084 0.25263 44.6187 0.174033C42.3196 -0.0842139 42.8804 -0.185267 37.6206 0.774737C35.5402 1.15649 33.4598 1.53825 31.3738 1.91439C31.1664 1.95369 30.9364 1.9986 30.7963 2.1558C30.628 2.34106 30.628 2.61615 30.6336 2.86878C30.9701 14.8492 35.557 19.5874 35.557 19.5874C37.015 21.4625 38.2486 23.0176 39.7514 22.8773C40.8617 22.7706 41.5458 21.7882 43.6598 18.7397C46.3682 14.838 47.7196 12.8843 47.7533 12.8337C52.3738 5.69265 52.7944 5.17616 52.5196 4.21054V4.21054Z" fill="black"/>
<path d="M35.6355 26.0717C43.2785 29.5861 48.9028 36.2949 51.185 44.3735C51.4766 45.4121 53.1028 44.9742 52.8056 43.9244C50.9664 37.4009 47.0523 31.5959 41.5738 27.5931C39.9813 26.431 38.271 25.4373 36.4822 24.6176C35.5065 24.1685 34.6486 25.6226 35.6355 26.0717V26.0717Z" fill="black"/>
<path d="M34.9794 25.0724C34.5589 26.1559 34.4972 27.3349 34.4243 28.4857C34.3626 29.457 34.3346 30.5349 33.8075 31.3882C33.2804 32.2415 32.3103 32.5784 31.5701 33.1229C30.7009 33.7686 30.0336 34.6331 30.3645 35.7728C30.6673 36.8114 32.2878 36.3679 31.985 35.3237C31.9458 35.1945 31.9402 35.1215 31.9626 35.0766C32.0243 34.9251 32.1421 34.824 32.2654 34.7117C32.6019 34.4086 33.0056 34.184 33.3869 33.9426C34.2729 33.3812 35.0523 32.7693 35.4897 31.7868C36.3757 29.805 35.815 27.5313 36.5944 25.5215C36.757 25.0948 36.415 24.5952 36.0056 24.4829C35.529 24.3538 35.1364 24.6457 34.9682 25.0724H34.9794Z" fill="black"/>
<path d="M15.6393 77.4459C17.0972 79.2705 16.5028 82.1561 14.8318 83.7954C13.1607 85.4347 10.7327 86.0298 8.4 86.1758C7.48598 86.2319 6.47103 86.1926 5.80935 85.5582C5.37757 85.1428 5.18131 84.5477 5.00187 83.9751C4.13271 81.2242 3.26355 78.4789 2.39439 75.728C1.8 73.8529 1.2 71.8543 1.68225 69.9455C2.16449 68.0368 4.18318 66.375 6.03925 67.0319C3.32524 65.5947 2.78692 61.8557 3.48224 58.8634C4.17757 55.8711 5.75327 53.0865 6.03365 50.0269C6.26916 47.4781 5.68038 44.5756 7.32897 42.6107C8.36075 41.3812 10.0093 40.8928 11.5682 40.511C15.9589 39.4275 20.4336 38.6584 24.9365 38.2037L24.3701 45.704" fill="black"/>
<path d="M9.37571 85.2775C8.41683 87.439 10.0206 90.0607 12.1907 90.9983C14.3608 91.9358 16.8505 91.6102 19.1664 91.1218C22.8673 90.3414 26.7365 89.0109 28.9907 85.9737" fill="black"/>
<path d="M49.7607 47.1356L51.415 76.6487C51.6449 80.7526 51.8748 84.9014 51.1121 88.9379C50.5458 91.9583 49.4355 94.8495 48.3308 97.7183C43.9121 109.205 39.4374 120.815 32.4561 130.954C28.0093 137.41 22.3626 143.776 21.914 151.608L10.7327 148.363C9.60561 148.037 8.42243 147.678 7.59252 146.841C6.05047 145.286 6.54953 142.255 8.51215 141.278L13.071 143.894" fill="black"/>
<path d="M9.47664 140.587C9.40935 137.522 11.6748 134.99 13.3458 132.413C15.5271 129.056 16.8168 125.21 18.0336 121.398C21.443 110.704 24.4206 99.8685 26.9495 88.9267" fill="black"/>
<path d="M51.2579 90.2741C59.0972 106.527 58.929 125.772 66.886 141.974L55.2673 148.183C53.3607 149.199 50.714 150.109 49.3009 148.469C48.1514 147.139 48.8523 144.916 50.2654 143.871C51.6785 142.827 53.5234 142.631 55.2785 142.474" fill="black"/>
<path d="M40.1944 118.799C42.8916 127.838 45.9308 136.77 49.2953 145.584Z" fill="black"/>
<path d="M50.1589 44.2556C50.7477 43.9693 51.4598 44.2725 51.914 44.6767C52.5813 45.2718 52.8056 46.1756 52.8449 47.0402C52.9458 49.1848 52.2056 51.3013 52.8561 53.4178C53.1701 54.4508 54.7963 54.0129 54.4766 52.9686C53.7308 50.5321 54.9925 47.9721 54.2972 45.5019C53.7084 43.3967 51.4542 41.7461 49.3065 42.796C48.3364 43.2732 49.1832 44.7272 50.1533 44.25L50.1589 44.2556Z" fill="black"/>
<path d="M49.2729 48.9827C51.5327 48.8872 52.8336 46.0353 52.1832 43.8682C51.5271 41.7012 49.6149 40.1854 47.7308 38.9391" fill="black"/>
<path d="M4.30654 159.142C7.29533 160.006 10.7103 159.22 13.0206 157.132L23.0299 167.72C15.7065 168.119 8.33832 167.703 1.11028 166.474C0.768227 166.418 0.386919 166.333 0.173835 166.058C-0.0785018 165.733 -0.00560466 165.272 0.084115 164.874C0.700937 162.207 1.76075 159.647 3.20748 157.328" fill="black"/>
<path d="M57.5271 160.882C60.5439 160.107 63.0785 157.688 64.0093 154.712L78.0056 158.726C71.9047 162.802 65.3495 166.193 58.5028 168.826C58.1776 168.949 57.8131 169.073 57.4879 168.944C57.1065 168.792 56.9327 168.36 56.8093 167.973C55.985 165.368 55.5925 162.622 55.6598 159.883" fill="black"/>
<path d="M9.13458 144.618C6.80187 149.817 4.46916 155.015 2.13084 160.22C1.69346 161.202 3.14019 162.055 3.58318 161.067C5.91589 155.869 8.2486 150.67 10.5869 145.466C11.0243 144.483 9.57757 143.63 9.13458 144.618Z" fill="black"/>
<path d="M18.6336 146.471C15.9364 151.102 13.2393 155.734 10.5421 160.366C9.99813 161.303 11.4505 162.151 11.9944 161.213C14.6916 156.582 17.3888 151.95 20.086 147.319C20.6299 146.381 19.1776 145.533 18.6336 146.471V146.471Z" fill="black"/>
<path d="M52.7832 146.033C53.9944 151.484 55.2112 156.93 56.4224 162.381C56.6579 163.436 58.2785 162.993 58.043 161.932C56.8318 156.481 55.615 151.035 54.4037 145.584C54.1682 144.528 52.5477 144.972 52.7832 146.033Z" fill="black"/>
<path d="M60.157 141.104C61.1776 146.926 62.1981 152.742 63.2187 158.563C63.4037 159.63 65.0243 159.175 64.8393 158.114C63.8187 152.293 62.7981 146.476 61.7776 140.655C61.5925 139.588 59.972 140.043 60.157 141.104Z" fill="black"/>
<path d="M8.9327 67.2564C9.05046 66.4368 9.21308 65.6283 9.43177 64.8311C9.53831 64.4382 9.66167 64.0508 9.79065 63.669C9.85794 63.4725 9.93083 63.2704 10.0037 63.0796C10.0374 62.9953 10.071 62.9111 10.1047 62.8269C10.1159 62.7932 10.228 62.5238 10.1944 62.6136L8.87102 62.782C8.77569 62.6641 8.9327 62.8606 8.9327 62.8662C8.97756 62.9336 9.02242 63.001 9.06728 63.0683C9.14018 63.1806 9.20747 63.2985 9.26915 63.4164C9.3084 63.4894 9.34205 63.5568 9.3813 63.6297C9.3813 63.6353 9.48784 63.8711 9.42616 63.7252C9.48224 63.8599 9.5327 64.0003 9.57756 64.1406C9.62242 64.281 9.66168 64.4213 9.69532 64.5673C9.71214 64.6459 9.72896 64.7245 9.74579 64.8031C9.74579 64.8199 9.77943 65.0333 9.76822 64.9322C9.757 64.8311 9.77943 65.0389 9.77943 65.0613C9.78504 65.1399 9.79065 65.2241 9.79625 65.3027C9.80186 65.4655 9.79625 65.6227 9.79625 65.7855C9.77382 66.2234 10.2 66.6501 10.6374 66.6276C11.1084 66.6052 11.4561 66.2571 11.4785 65.7855C11.5514 64.2529 11.0187 62.7876 10.0654 61.5974C9.7514 61.2045 8.94392 61.2999 8.74205 61.7659C8.05233 63.3883 7.55887 65.0669 7.31214 66.8129C7.25046 67.2452 7.41868 67.7392 7.90093 67.8515C8.29906 67.9413 8.87102 67.728 8.93831 67.262L8.9327 67.2564Z" fill="black"/>
<path d="M30.2299 38.1531C30.2411 52.7609 27.9308 60.8508 25.6878 65.5947C24.9645 67.1217 23.1252 70.928 24.1178 75.1049C24.7738 77.867 26.8654 80.034 28.8673 82.0438C31.3402 84.5309 33.8131 87.0179 36.2916 89.5049C36.5215 89.7351 36.8523 90.1562 37.4355 90.3246C39.5495 90.9365 42.2019 87.7253 43.4131 86.1028" fill="white"/>
<path d="M29.3888 38.1531C29.3888 46.5069 28.8617 55.2648 25.828 63.1469C25.3626 64.3596 24.7682 65.5217 24.2692 66.7231C23.3439 68.9575 22.7944 71.4108 23.0636 73.8417C23.3607 76.5084 24.6505 78.6979 26.4056 80.674C28.3458 82.8691 30.5103 84.8846 32.5794 86.9618C33.7234 88.1126 34.828 89.3197 36.0112 90.42C36.8579 91.206 37.9682 91.4306 39.0561 91.0656C41.2206 90.347 42.8299 88.2867 44.1477 86.5295C44.7981 85.6649 43.3402 84.8228 42.6953 85.6818C41.6635 87.0572 40.3458 88.7807 38.686 89.4151C37.6766 89.8025 37.1776 89.1962 36.4991 88.5169C35.4561 87.467 34.4131 86.4228 33.3757 85.373C31.4411 83.4249 29.4168 81.533 27.5944 79.4782C25.9402 77.6087 24.7682 75.5203 24.6841 72.9715C24.5664 69.4403 26.3383 66.5547 27.5383 63.3715C28.6374 60.4522 29.3664 57.3981 29.8822 54.3272C30.7794 48.9883 31.071 43.5595 31.071 38.1475C31.071 37.064 29.3888 37.064 29.3888 38.1475V38.1531Z" fill="black"/>
<path d="M24.9308 38.2093C23.2374 41.0331 23.8654 44.2949 24.2075 45.6311C24.6841 44.89 28.385 39.3602 35.2037 38.7145C41.1364 38.1475 47.0243 41.5047 49.9794 47.203C50.2093 44.7721 50.4393 42.3468 50.6692 39.916C49.0486 38.3216 44.4336 34.2233 37.5981 33.791C35.4841 33.6563 27.9365 33.2015 24.9365 38.2093H24.9308Z" fill="black"/>
<path d="M54.0953 4.03651C50.8374 13.979 47.5794 23.9215 44.3215 33.864L30.0112 34.4984C32.1477 30.0464 34.2785 25.5889 36.415 21.1369" fill="white"/>
<path d="M13.4804 162.314L15.5047 161.505C15.7065 161.427 15.8748 161.219 15.7963 160.989C15.7346 160.792 15.4991 160.607 15.2804 160.697L13.2561 161.505C13.0542 161.584 12.886 161.792 12.9645 162.022C13.0262 162.218 13.2617 162.403 13.4804 162.314Z" fill="white"/>
<path d="M16.4411 164.396L17.5963 163.841C17.686 163.796 17.7645 163.684 17.7869 163.588C17.815 163.487 17.8037 163.352 17.7421 163.262C17.6804 163.173 17.5963 163.094 17.4897 163.072C17.372 163.043 17.271 163.06 17.1645 163.116L16.0094 163.672C15.9196 163.717 15.8411 163.829 15.8187 163.925C15.7907 164.026 15.8019 164.161 15.8636 164.251C15.9252 164.34 16.0094 164.419 16.1159 164.441C16.2337 164.469 16.3346 164.453 16.4411 164.396Z" fill="white"/>
<path d="M68.2374 156.509C67.5925 156.857 67.172 157.581 67.1776 158.311C67.1776 158.53 67.3682 158.743 67.5981 158.732C67.828 158.721 68.0187 158.547 68.0187 158.311C68.0187 158.238 68.0187 158.17 68.0299 158.098L68.0131 158.21C68.0299 158.092 68.0579 157.974 68.0972 157.856C68.1028 157.839 68.1084 157.822 68.114 157.806C68.1308 157.761 68.0748 157.895 68.0972 157.845C68.1084 157.817 68.1196 157.794 68.1365 157.766C68.1645 157.71 68.1981 157.654 68.2318 157.598C68.2486 157.575 68.2654 157.553 68.2822 157.53C68.3103 157.491 68.2206 157.603 68.2542 157.564C68.2654 157.553 68.2766 157.536 68.2879 157.525C68.3271 157.48 68.372 157.435 68.4168 157.396C68.4393 157.379 68.4617 157.356 68.4785 157.34C68.5402 157.289 68.4561 157.362 68.4505 157.356L68.4841 157.328C68.5346 157.289 68.5907 157.255 68.6467 157.227C68.843 157.121 68.9159 156.84 68.7981 156.649C68.6692 156.453 68.428 156.385 68.2206 156.498L68.2374 156.509Z" fill="white"/>
<path d="M71.7477 157.654C71.7589 157.705 71.7701 157.755 71.7813 157.811L71.7645 157.699C71.7757 157.806 71.7757 157.907 71.7645 158.013L71.7813 157.901C71.7645 158.013 71.7365 158.12 71.6972 158.221L71.7421 158.12C71.7028 158.215 71.6467 158.311 71.5851 158.395L71.6523 158.311C71.6523 158.311 71.6075 158.367 71.5851 158.389C71.5122 158.474 71.4617 158.575 71.4617 158.687C71.4617 158.788 71.5065 158.912 71.5851 158.985C71.7477 159.13 72.0224 159.159 72.1794 158.985C72.5607 158.569 72.7122 157.98 72.5664 157.435C72.5103 157.222 72.2636 157.07 72.0505 157.143C71.8374 157.216 71.6972 157.435 71.7589 157.66L71.7477 157.654Z" fill="white"/>
<path d="M13.6037 144.27L17.2766 145.567C17.4897 145.64 17.7364 145.483 17.7925 145.275C17.8542 145.045 17.714 144.831 17.5009 144.758L13.828 143.462C13.615 143.389 13.3682 143.546 13.3121 143.754C13.2505 143.984 13.3907 144.197 13.6037 144.27Z" fill="white"/>
<path d="M56.243 142.513C58.0822 142.21 59.8598 141.631 61.5308 140.812C62.0187 140.57 61.5925 139.846 61.1047 140.082C59.5009 140.874 57.785 141.413 56.0187 141.699C55.7944 141.738 55.671 142.013 55.7271 142.215C55.7944 142.457 56.0187 142.547 56.243 142.507V142.513Z" fill="white"/>
<path d="M44.4673 83.8909C42.3477 86.3386 39.8523 88.427 37.0654 90.0719C36.6 90.347 37.0206 91.0769 37.4916 90.8018C40.3346 89.1232 42.9028 86.9898 45.0617 84.486C45.415 84.0761 44.8206 83.481 44.4673 83.8909Z" fill="white"/>
</g>
<defs>
<clipPath id="clip0_1_3">
<rect width="78" height="169" fill="white"/>
</clipPath>
</defs>
</svg>
